<svg width="339" height="404" viewBox="0 0 339 404" fill="none" xmlns="http://www.w3.org/2000/svg">
<path d="M40.7797 136.563L47.0245 114.676L56.1297 119.362L100.15 103.072L107.54 99.9372C109.73 97.0151 112.589 94.6609 115.875 93.0704C124.042 88.9798 132.773 89.8777 135.376 95.076C137.978 100.273 133.468 107.802 125.297 111.893C122.055 113.572 118.459 114.45 114.809 114.454L89.639 126.667L55.4949 143.546L40.7797 136.563Z" fill="#FFB6B6"/>
<path d="M24.0165 107.228L25.2817 124.368L44.4615 143.187L46.0543 139.063L49.5126 130.128L54.0732 118.301L55.1205 115.596L40.0863 98.282L27.6059 83.902C24.66 91.2779 23.438 99.2526 24.0165 107.228Z" fill="#E6E6E6"/>
<path d="M129.311 67.0557C129.311 67.0557 127.388 60.7822 129.941 55.9348C132.494 51.0873 135.424 45.4907 135.424 45.4907C135.424 45.4907 139.944 46.7183 137.797 56.2456C137.797 56.2456 144.015 43.4644 146.461 44.6415C148.907 45.8186 148.191 48.9944 148.191 48.9944C150.289 48.7051 152.362 49.6685 153.493 51.4583L150.11 59.2579C150.11 59.2579 159.198 51.6212 160.255 52.4851C161.311 53.349 162.901 59.6103 162.901 59.6103C162.901 59.6103 166.921 58.4308 168.683 59.8707C170.444 61.3106 164.147 70.7371 164.147 70.7371C165.954 67.8666 168.389 67.3459 171.413 69.0375C171.413 69.0375 167.827 83.5593 158.051 83.4413C154.7 83.4008 147.319 88.6453 143.013 86.3086C134.755 81.8276 129.311 67.0557 129.311 67.0557Z" fill="#715AFF"/>
<path d="M140.881 68.9338C138.144 61.6426 136.761 59.4536 136.761 59.4536C136.761 59.4536 129.724 58.2845 128.773 66.2045L127.281 63.5737C127.281 63.5737 124.906 69.2867 132.837 79.6349C141.419 90.8323 150.85 88.0141 151.752 86.4015C151.752 86.4015 165.428 88.6501 170.411 75.7989L165.954 75.2116L152.051 82.2976L152.293 77.2185C152.453 73.8729 148.638 71.8594 145.966 73.8789C145.966 73.8789 143.617 76.2249 140.881 68.9338Z" fill="#3F3D56"/>
<path d="M118.745 124.04C118.34 123.808 118.114 123.332 118.223 122.852C122.598 103.441 136.631 81.0986 136.772 80.8749C137.094 80.3658 137.773 80.2098 138.277 80.5355C138.786 80.8576 138.938 81.5309 138.617 82.0403C138.477 82.2612 124.643 104.292 120.35 123.332C120.218 123.919 119.634 124.289 119.047 124.156C118.938 124.132 118.837 124.092 118.745 124.04Z" fill="#3F3D56"/>
<path d="M207.305 95.3645C210.004 96.9132 212.292 99.0849 213.979 101.699L224.561 108.146L256.403 126.068L268.579 139.866L257.495 149.301L218.269 121.326L206.928 113.605C203.823 113.383 200.818 112.421 198.162 110.798C191.463 106.833 188.08 100.162 190.604 95.8996C193.129 91.6368 200.604 91.3969 207.305 95.3645Z" fill="#FFB6B6"/>
<path d="M256.399 126.069L260.196 146.994L260.665 149.613L303.977 121.651L307.239 108.351L307.218 108.232L303.77 92.1281L256.399 126.069Z" fill="#E6E6E6"/>
<path d="M3.50653 386.603L14.5508 389.985L32.8534 348.996L16.5532 344.004L3.50653 386.603Z" fill="#FFB6B6"/>
<path d="M41.4211 397.943C41.5876 398.628 41.1964 400.553 40.9901 401.226C40.356 403.296 38.1638 404.46 36.0936 403.826L1.89183 393.349C0.479597 392.917 -0.314627 391.421 0.117993 390.009L0.554165 388.585C0.554165 388.585 0.173192 383.787 5.27241 379.579C5.27241 379.579 8.33657 385.036 16.7874 380.548L19.7538 377.677L30.4693 392.006L37.8349 395.293C39.4464 396.012 41.0041 396.229 41.4211 397.943Z" fill="#2F2E41"/>
<path d="M116.843 396.82L128.063 394.077L122.823 349.494L106.263 353.543L116.843 396.82Z" fill="#FFB6B6"/>
<path d="M155.222 387.171C155.716 387.674 156.364 389.528 156.531 390.212C157.045 392.315 155.757 394.437 153.654 394.951L118.906 403.443C117.471 403.794 116.024 402.915 115.673 401.48L115.32 400.034C115.32 400.034 112.538 396.106 114.767 389.882C114.767 389.882 120.191 393.003 125.158 384.824L126.238 380.839L142.775 387.671L150.785 386.728C152.538 386.521 153.987 385.911 155.222 387.171Z" fill="#2F2E41"/>
<path d="M275.29 395.76L262.342 395.758L256.183 345.816L275.293 345.818L275.29 395.76Z" fill="#FFB6B6"/>
<path d="M230.929 395.466C230.526 396.145 230.313 398.336 230.313 399.126C230.313 401.553 232.281 403.52 234.708 403.52H274.806C276.461 403.52 277.804 402.178 277.804 400.522V398.853C277.804 398.853 279.787 393.836 275.703 387.651C275.703 387.651 270.628 392.494 263.043 384.909L260.807 380.858L244.617 392.698L235.643 393.802C233.68 394.044 231.939 393.765 230.929 395.466Z" fill="#2F2E41"/>
<path d="M318.106 385.95L305.555 389.133L287.304 342.239L305.827 337.541L318.106 385.95Z" fill="#FFB6B6"/>
<path d="M275.035 396.574C274.811 397.331 275.144 399.508 275.338 400.273C275.935 402.625 278.326 404.049 280.678 403.452L319.545 393.592C321.15 393.185 322.121 391.554 321.713 389.949L321.303 388.331C321.303 388.331 321.992 382.979 316.513 377.989C316.513 377.989 312.783 383.931 303.567 378.445L300.403 375.067L287.622 390.525L279.195 393.803C277.351 394.52 275.595 394.677 275.035 396.574Z" fill="#2F2E41"/>
<path d="M255.406 161.799L292.5 166.163L299.046 182.528C299.046 182.528 313.229 198.893 294.682 230.532L288.136 280.718L312.464 357.925L285.408 358.925L259.637 285.182L247.769 221.804L246.678 196.711L255.406 161.799Z" fill="#2F2E41"/>
<path d="M257.588 218.531L247.769 221.804L251.464 358.925H281.464L257.588 218.531Z" fill="#2F2E41"/>
<path d="M100.942 192.893L126.035 361.997L107.488 363.088L72.0309 258.898L62.5397 310.279L27.8456 360.906L10.3897 356.542L38.0276 284.626L31.1186 231.078C31.1186 231.078 23.4817 207.076 31.1186 196.166C38.7556 185.256 100.942 192.893 100.942 192.893Z" fill="#2F2E41"/>
<path d="M299.591 56.5184L300.137 77.7928L284.317 82.7023L278.317 77.7928L276.681 59.7914L299.591 56.5184Z" fill="#FFB6B6"/>
<path d="M45.3016 58.7005L51.8475 40.1536L76.9404 57.6095L71.4854 72.8834L45.3016 58.7005Z" fill="#FFB6B6"/>
<path d="M247.529 129.08L251.02 144.681L254.959 162.301L292.914 166.763L303.977 121.651L307.239 108.351L307.218 108.232L303.77 92.1281L300.573 77.2473H278.066L253.813 104.686C249.831 109.203 247.453 114.865 246.962 120.756C246.733 123.517 246.918 126.321 247.529 129.08Z" fill="#E6E6E6"/>
<path d="M282.136 66.3374C295.391 66.3374 306.137 55.5914 306.137 42.3355C306.137 29.0796 295.391 18.3336 282.136 18.3336C268.88 18.3336 258.134 29.0796 258.134 42.3355C258.134 55.5914 268.88 66.3374 282.136 66.3374Z" fill="#FFB6B6"/>
<path d="M74.7584 58.7004C88.0143 58.7004 98.7603 47.9544 98.7603 34.6985C98.7603 21.4427 88.0143 10.6967 74.7584 10.6967C61.5026 10.6967 50.7566 21.4427 50.7566 34.6985C50.7566 47.9544 61.5026 58.7004 74.7584 58.7004Z" fill="#FFB6B6"/>
<path d="M24.0165 107.228L25.2817 124.368L30.595 196.405L30.7367 196.547C30.8352 196.657 41.025 206.551 57.5646 197.737C73.5257 189.227 104.794 200.923 105.11 201.042L106.07 201.402L98.4545 168.116L92.967 144.169L89.0393 126.964L84.8607 108.734L76.3187 71.4109L41.7776 55.8088L29.733 79.2002C28.9473 80.7387 28.2276 82.2985 27.6059 83.9019C24.66 91.2779 23.438 99.2526 24.0165 107.228Z" fill="#E6E6E6"/>
<path d="M84.0319 31.9711L87.3048 29.7891V22.1521C87.3048 22.1521 102.579 25.4251 99.3058 13.4242C96.0328 1.42322 80.881 -1.01478 68.7579 0.332233C68.267 0.386783 67.776 0.435873 67.2863 0.479923C55.5856 1.53237 46.0678 10.4229 44.6238 22.0818C43.0553 34.746 43.6847 48.2539 53.484 48.336L63.3029 51.609C63.3029 51.609 58.939 30.8801 67.6669 35.244C76.3949 39.608 84.0319 31.9711 84.0319 31.9711Z" fill="#2F2E41"/>
<path d="M112.38 64.3249C112.38 64.3249 107.601 59.8288 107.416 54.3535C107.231 48.8781 107.002 42.5649 107.002 42.5649C107.002 42.5649 111.537 41.391 114.393 50.7304C114.393 50.7304 113.46 36.5475 116.168 36.3577C118.876 36.1679 119.828 39.2811 119.828 39.2811C121.507 37.9904 123.785 37.7998 125.654 38.7937L126.581 47.2449C126.581 47.2449 130.69 36.1082 132.036 36.335C133.382 36.5617 137.865 41.2121 137.865 41.2121C137.865 41.2121 140.773 38.1954 143.016 38.5732C145.259 38.9511 144.462 50.2591 144.462 50.2591C144.609 46.8703 146.465 45.2116 149.931 45.1819C149.931 45.1819 154.012 59.5725 145.462 64.3147C142.532 65.9401 138.72 74.1529 133.822 74.2574C124.428 74.4578 112.38 64.3249 112.38 64.3249Z" fill="#715AFF"/>
<path d="M123.36 60.2227C117.37 55.2459 115.083 54.0303 115.083 54.0303C115.083 54.0303 108.392 56.5019 111.491 63.8522L108.89 62.3069C108.89 62.3069 109.659 68.4457 121.676 73.5036C134.679 78.9766 141.474 71.8549 141.458 70.0074C141.458 70.0074 154.451 65.1831 152.41 51.5518L148.249 53.2499L139.685 66.2945L137.378 61.763C135.858 58.7781 131.547 58.9199 130.227 61.9981C130.227 61.9981 129.35 65.1995 123.36 60.2227Z" fill="#3F3D56"/>
<path d="M131.442 119.056C130.974 119.056 130.542 118.754 130.399 118.283C124.58 99.2547 125.696 72.895 125.708 72.6308C125.736 72.0288 126.248 71.5569 126.848 71.5899C127.449 71.6176 127.915 72.1269 127.888 72.7288C127.876 72.9899 126.778 98.9809 132.485 117.646C132.662 118.221 132.338 118.832 131.761 119.008C131.655 119.041 131.548 119.056 131.442 119.056Z" fill="#3F3D56"/>
<path d="M39.652 145.203L59.5019 140.006L60.0435 149.222L92.8848 175.906L98.708 180.201C101.981 180.56 105.119 181.698 107.862 183.518C114.783 187.979 118.093 195.166 115.254 199.571C112.415 203.975 104.503 203.93 97.5789 199.467C94.7885 197.722 92.4569 195.335 90.7786 192.504L69.7516 178.576L40.9856 159.827L39.652 145.203Z" fill="#FFB6B6"/>
<path d="M52.5423 77.7927L70.1098 87.7677L66.8246 150.609L33.2063 156.222L52.5423 77.7927Z" fill="#E6E6E6"/>
<path d="M277.754 190.165C279.663 187.709 282.132 185.745 284.955 184.438L292.812 174.856L314.991 145.818L330.349 135.681L338.15 147.97L304.988 182.921L295.764 193.077C295.112 196.121 293.741 198.963 291.765 201.367C286.906 207.449 279.829 209.871 275.959 206.779C272.089 203.685 272.892 196.249 277.754 190.165Z" fill="#FFB6B6"/>
<path d="M286.84 92.0131L307.566 77.2096L338.9 144.879L314.991 145.818L286.84 92.0131Z" fill="#E6E6E6"/>
<path d="M261.952 29.789C261.952 29.789 265.616 22.205 267.58 27.8051C269.544 33.4051 280.019 47.4052 280.019 47.4052C280.019 47.4052 285.583 55.1831 279.364 61.7164C273.145 68.2498 259.724 99.9834 278.382 94.6945C297.04 89.4055 306.532 101.85 306.532 101.85C306.532 101.85 322.571 103.095 320.28 86.9166C317.988 70.7387 306.205 60.1608 306.205 40.5607C306.205 20.9606 295.076 12.5605 288.529 13.4938C281.983 14.4272 258.024 14.5444 261.952 29.789Z" fill="#2F2E41"/>
</svg>
