<svg width="133" height="80" viewBox="0 0 133 80" fill="none" xmlns="http://www.w3.org/2000/svg">
<path d="M63.1989 1.46678C63.4842 1.02255 63.9034 0.652107 64.4128 0.394105C64.9221 0.136102 65.5029 0 66.0945 0C66.6862 0 67.267 0.136102 67.7763 0.394105C68.2856 0.652107 68.7049 1.02255 68.9902 1.46678L88.5062 33.2228C88.9716 33.9581 89.6212 34.596 90.4083 35.0906C91.1954 35.5853 92.1005 35.9244 93.0586 36.0837C94.0168 36.2429 95.0041 36.2184 95.9499 36.0118C96.8957 35.8052 97.7763 35.4217 98.5287 34.8888L126.804 14.1261C127.347 13.7477 128.016 13.5267 128.715 13.4949C129.413 13.463 130.106 13.622 130.692 13.949C131.279 14.276 131.729 14.754 131.979 15.3144C132.228 15.8747 132.263 16.4884 132.08 17.0671L113.344 75.1278C112.962 76.3159 112.138 77.3647 110.997 78.1153C109.857 78.8659 108.462 79.2773 107.024 79.2871H25.1718C23.7328 79.2785 22.3363 78.8677 21.1945 78.117C20.0526 77.3663 19.2277 76.3168 18.8449 75.1278L0.115657 17.0728C-0.0677997 16.4941 -0.0322887 15.8804 0.217079 15.32C0.466446 14.7597 0.916808 14.2816 1.50334 13.9547C2.08986 13.6277 2.7823 13.4687 3.48098 13.5005C4.17965 13.5323 4.84853 13.7534 5.39132 14.1318L33.6604 34.8945C34.4128 35.4274 35.2934 35.8109 36.2392 36.0175C37.1849 36.224 38.1723 36.2486 39.1305 36.0893C40.0886 35.9301 40.9937 35.5909 41.7808 35.0963C42.5679 34.6017 43.2175 33.9638 43.6829 33.2285L63.1989 1.46678Z" fill="#FCD34D"/>
</svg>
