<svg width="685" height="507" viewBox="0 0 685 507" fill="none" xmlns="http://www.w3.org/2000/svg">
<g clip-path="url(#clip0_6_70)">
<path d="M140.266 494.709L150.838 494.708L155.867 453.933L140.264 453.934L140.266 494.709Z" fill="#9E616A"/>
<path d="M137.57 491.258L140.545 491.257L152.162 486.533L158.389 491.257C161.907 491.257 165.283 492.655 167.771 495.143C170.259 497.631 171.657 501.005 171.657 504.524V504.955L137.57 504.956L137.57 491.258Z" fill="#2F2E41"/>
<path d="M189.379 494.709L199.951 494.708L204.98 453.933L189.377 453.934L189.379 494.709Z" fill="#9E616A"/>
<path d="M186.682 491.258L189.658 491.257L201.275 486.533L207.501 491.257C211.02 491.257 214.395 492.655 216.884 495.143C219.372 497.631 220.77 501.005 220.77 504.524V504.955L186.683 504.956L186.682 491.258Z" fill="#2F2E41"/>
<path d="M197.829 271.565L114.771 273.732L116.215 314.178C116.215 314.178 114.771 325.011 117.66 327.9C120.549 330.789 121.993 330.789 120.549 335.845C119.104 340.901 126.736 349.158 125.809 350.085C124.882 351.012 122.715 356.068 122.715 356.068L129.938 397.236C129.938 397.236 134.994 468.739 136.438 470.183C137.883 471.628 139.327 470.183 137.883 473.795C136.438 477.406 134.994 475.961 136.438 477.406C137.718 478.785 138.923 480.232 140.049 481.739H157.511C157.511 481.739 158.828 474.517 158.828 473.795C158.828 473.072 160.272 468.739 160.272 468.017C160.272 467.294 158.996 466.018 158.996 466.018C158.554 464.549 158.256 463.042 158.106 461.516C158.106 460.072 153.772 404.459 153.772 404.459L162.439 332.234L183.384 403.014C183.384 403.014 183.384 465.128 184.829 466.572C186.273 468.017 186.273 467.294 185.551 470.183C184.829 473.072 181.94 472.35 184.107 474.517C186.273 476.684 186.996 473.072 186.273 476.684L185.551 480.295L207.219 480.605C207.219 480.605 210.108 474.517 208.663 472.35C207.219 470.183 207.305 470.775 209.067 467.229C210.83 463.683 211.552 462.961 210.83 462.239C210.108 461.516 210.108 457.675 210.108 457.675L206.496 388.569C206.496 388.569 205.774 315.622 205.774 313.455C205.72 312.34 205.925 311.228 206.374 310.206V307.265L203.607 296.844L197.829 271.565Z" fill="#2F2E41"/>
<path d="M291.826 114.041C291.427 115.15 290.789 116.159 289.958 116.995C289.127 117.832 288.123 118.476 287.016 118.882C285.909 119.288 284.727 119.447 283.552 119.347C282.377 119.247 281.239 118.89 280.216 118.302L244.163 148.507L242.203 133.743L277.467 106.748C278.568 105.096 280.237 103.906 282.157 103.403C284.078 102.899 286.116 103.118 287.886 104.017C289.656 104.916 291.034 106.433 291.76 108.28C292.487 110.128 292.51 112.177 291.826 114.041Z" fill="#9E616A"/>
<path d="M132.848 126.507C145.213 126.507 155.238 116.482 155.238 104.117C155.238 91.7515 145.213 81.7273 132.848 81.7273C120.482 81.7273 110.458 91.7515 110.458 104.117C110.458 116.482 120.482 126.507 132.848 126.507Z" fill="#9E616A"/>
<path d="M150.999 81.8346C148.915 76.8664 139.982 73.9166 125.846 74.3609C111.711 74.8052 109.235 91.6619 109.235 91.6619C101.449 98.9187 114.02 121.576 116.2 118.452C118.381 115.328 122.043 118.281 122.043 118.281L118.553 98.6544C122.238 100.072 126.201 101.024 129.667 99.3723L123.924 96.3016C128.684 96.8938 133.443 97.4861 138.203 98.0783L132.314 93.5483C132.457 93.5012 132.6 93.4522 132.743 93.4042C135.104 94.4223 137.633 94.9965 140.202 95.0979C143.204 95.0755 146.395 93.6688 147.653 90.9429C147.987 90.1944 148.168 89.3864 148.186 88.5668C152.325 89.9106 154.498 94.7597 154.498 94.7597C153.712 90.3572 152.541 86.0323 150.999 81.8346Z" fill="#2F2E41"/>
<path d="M150.77 127.508C145.77 127.508 142.55 128.198 134.77 129.508C120.41 131.928 129.01 145.573 129.01 145.573C129.01 145.573 129.66 145.243 127.9 145.573C126.14 145.903 120.14 151.093 120.14 151.093L109.41 160.623C93.2398 173.313 96.8598 193.113 96.8598 193.113L120.44 216.843L110.11 264.453C110.11 264.453 114.5 271.523 112.23 274.693C109.96 277.863 132.23 276.953 132.23 276.953C147.6 283.803 201.75 278.013 201.75 278.013C201 276.053 193.75 260.863 193.75 260.863C196.9 255.423 193.9 247.563 193.9 247.563C193.9 247.563 190.77 210.383 188.77 205.243C186.77 200.103 193.89 172.253 198.57 172.553C203.25 172.853 233.48 157.433 233.48 157.433C233.48 157.433 232.72 156.223 242.7 152.143C248.432 149.89 253.688 146.576 258.19 142.373L262.29 134.183C260.32 134.943 253.67 122.403 253.67 122.403L250.77 123.508L249.09 123.023C249.09 123.023 235.98 126.753 233.3 129.473C230.62 132.193 229.72 131.433 227.3 132.043C224.88 132.653 224.58 134.353 223.82 134.163C223.06 133.973 221.71 136.273 220.65 135.973C219.59 135.673 217.32 136.883 215.81 137.183C214.3 137.483 203.57 142.023 203.57 142.023C196.93 138.663 178.93 140.023 178.93 140.023C178.93 140.023 173.04 136.553 171.37 140.023C170.92 141.009 170.199 141.846 169.29 142.436C168.381 143.026 167.323 143.344 166.24 143.353L159.06 140.283C158.642 141.806 150.811 125.93 150.77 127.508Z" fill="black"/>
<path d="M116.49 313.841C115.706 312.961 115.125 311.919 114.787 310.79C114.449 309.66 114.362 308.47 114.534 307.304C114.706 306.137 115.131 305.022 115.78 304.038C116.429 303.054 117.286 302.223 118.29 301.606L108.118 261.618L122.026 266.947L129.755 304.708C130.68 306.465 130.929 308.499 130.454 310.427C129.98 312.354 128.814 314.041 127.179 315.167C125.544 316.292 123.553 316.779 121.583 316.535C119.613 316.291 117.801 315.332 116.49 313.841Z" fill="#9E616A"/>
<path d="M97.7699 185.508L96.5137 201.477C96.5137 201.477 94.9521 219.02 95.361 222.264C95.7699 225.508 96.5313 245.319 96.5313 245.319L109.77 271.508L124.77 267.508L123.872 255.223L124.77 266.508L126.77 256.508L121.77 239.508L124.77 233.508L123.257 213.367L97.7699 185.508Z" fill="black"/>
<path d="M452.911 148.188L457.863 149.249C457.896 147.177 458.154 145.116 458.633 143.1C459.083 145.568 460.032 147.919 461.421 150.008L489.824 156.074L517.092 127.297C517.134 112.908 509.144 101.974 494.818 101.974C493.954 101.974 493.059 102.015 492.154 102.099C484.414 100.803 476.473 102.562 470.003 107.003C463.534 111.445 459.04 118.224 457.468 125.913C447.314 135.911 450.997 141.789 452.911 148.188Z" fill="#2F2E41"/>
<path d="M438.947 484.723H428.645L423.744 444.985H438.949L438.947 484.723Z" fill="#FFB6B6"/>
<path d="M443.556 504.285H436.245L434.941 497.383L431.598 504.285H412.209C411.28 504.285 410.375 503.988 409.626 503.438C408.877 502.887 408.325 502.111 408.048 501.224C407.771 500.337 407.786 499.384 408.089 498.506C408.392 497.627 408.968 496.868 409.733 496.34L425.216 485.647V478.669L441.502 479.641L443.556 504.285Z" fill="#2F2E41"/>
<path d="M559.646 473.509L550.685 478.593L526.812 446.449L540.037 438.946L559.646 473.509Z" fill="#FFB6B6"/>
<path d="M573.308 488.249L566.95 491.857L562.409 486.498L562.908 494.15L546.045 503.719C545.236 504.177 544.303 504.366 543.38 504.256C542.457 504.146 541.593 503.745 540.914 503.109C540.236 502.474 539.778 501.639 539.608 500.725C539.438 499.811 539.565 498.867 539.97 498.03L548.159 481.089L544.716 475.02L559.36 467.828L573.308 488.249Z" fill="#2F2E41"/>
<path d="M400.866 155.15C402.186 155.341 403.448 155.819 404.563 156.55C405.679 157.282 406.62 158.249 407.321 159.384C408.023 160.519 408.466 161.793 408.622 163.118C408.777 164.443 408.64 165.786 408.22 167.052L423.985 180.697L418.029 192.3L396.037 172.717C393.956 171.871 392.259 170.291 391.266 168.277C390.273 166.263 390.053 163.954 390.648 161.789C391.243 159.623 392.612 157.751 394.495 156.528C396.379 155.304 398.645 154.814 400.866 155.15Z" fill="#FFB6B6"/>
<path d="M414.493 197.619L403.949 180.844L415.673 168.857L424 178.989L434.314 183.591L448.47 192.216C451.285 188.903 472.975 163.985 482.653 171.16C483.815 171.952 484.792 172.987 485.516 174.192C486.24 175.397 486.695 176.745 486.849 178.143C487.533 184.814 481.554 191.599 481.328 191.85L468.543 209.096C468.145 210.18 463.915 221.348 457.314 224.352C456.376 224.801 455.356 225.05 454.317 225.084C453.278 225.118 452.243 224.936 451.279 224.549C433.786 217.73 422 210.038 416.742 202.073C415.811 200.687 415.056 199.191 414.493 197.619Z" fill="#2F2E41"/>
<path d="M453.51 232.631C453.51 232.631 423.217 280.883 428.705 286.371C434.193 291.859 442.733 293.301 442.733 293.301L461.634 268.809L453.51 232.631Z" fill="#2F2E41"/>
<path d="M480.293 166.73L466.016 176.388C459.38 180.877 454.389 187.408 451.8 194.99C449.211 202.572 449.165 210.791 451.668 218.401L455.688 230.618L480.293 166.73Z" fill="#2F2E41"/>
<path d="M505.539 298.445L507.448 305.093L513.961 385.264L546.501 445.908L530.97 457.001L486.597 399.316L469.047 342.038L441.484 468.834L420.777 467.355L435.158 291.554L462.449 242.071L505.539 298.445Z" fill="#2F2E41"/>
<path d="M482.722 169.159L462.851 185.399C458.49 188.963 455.349 193.799 453.867 199.232C453.194 201.7 452.875 204.25 452.918 206.807L453.51 242.071L435.291 290.762C435.291 290.762 484.684 309.421 491.27 292.957C497.855 276.493 482.722 169.159 482.722 169.159Z" fill="black"/>
<path d="M455.048 276.493L451.755 263.321L452.559 230.548C452.623 228.644 462.774 199.006 475.566 167.525L486.571 156.52L492.504 152.659L505.564 164.714C505.564 164.714 503.903 197.711 504.441 231.49C504.59 240.836 502.947 251.751 502.246 260.028L508.246 286.691V301.531L507.856 301.61C507.466 301.689 501.453 301.504 476.778 301.504C456.334 301.504 469.944 287.008 455.048 276.493Z" fill="#2F2E41"/>
<path opacity="0.2" d="M500.028 194.141L503.029 212.864L482.721 221.241L500.028 194.141Z" fill="black"/>
<path d="M479.572 149.147C490.552 149.147 499.454 140.245 499.454 129.265C499.454 118.284 490.552 109.383 479.572 109.383C468.591 109.383 459.69 118.284 459.69 129.265C459.69 140.245 468.591 149.147 479.572 149.147Z" fill="#FFB6B6"/>
<path opacity="0.2" d="M512.886 230.144C507.594 236.271 500.417 240.466 492.482 242.07C484.546 243.674 476.303 242.595 469.047 239.004L464.72 236.863L512.886 230.144Z" fill="black"/>
<path d="M443.702 225.567C444.588 224.57 445.683 223.781 446.908 223.253C448.133 222.725 449.459 222.473 450.792 222.513C452.126 222.553 453.434 222.885 454.625 223.486C455.816 224.087 456.861 224.941 457.686 225.989L477.76 220.354L484.161 231.717L455.7 239.278C453.847 240.547 451.593 241.093 449.365 240.812C447.137 240.53 445.09 239.442 443.611 237.752C442.132 236.061 441.324 233.888 441.341 231.642C441.358 229.396 442.198 227.235 443.702 225.567Z" fill="#FFB6B6"/>
<path d="M486.65 237.599L466.841 237.154L463.3 220.765L476.343 219.4L485.867 213.329L500.865 206.27C499.652 202.095 490.813 170.264 502.133 166.142C503.434 165.609 504.835 165.364 506.24 165.424C507.645 165.484 509.021 165.847 510.272 166.489C516.215 169.594 518.582 178.322 518.667 178.65L526.013 198.823C526.698 199.751 533.686 209.436 532.555 216.6C532.413 217.63 532.059 218.619 531.514 219.504C530.97 220.39 530.248 221.153 529.394 221.745C514.064 232.583 501.15 238.179 491.606 238.178C489.936 238.19 488.272 237.996 486.65 237.599Z" fill="#2F2E41"/>
<path d="M455.73 116.185C457.322 118.256 462.805 120.087 469.318 121.564C469.307 121.429 469.307 121.294 469.307 121.158C469.34 119.087 469.598 117.025 470.077 115.01C470.528 117.478 471.476 119.829 472.865 121.918C472.969 122.074 473.073 122.23 473.188 122.386C478.775 123.489 484.684 124.342 489.314 124.914C486.13 136.379 473.927 145.784 475.248 152.755L511.006 160.058C510.786 157.162 511.018 154.249 511.693 151.423C512.377 155.152 514.184 158.583 516.874 161.255L519.912 161.879L520.817 157.416C528.661 138.574 517.727 119.286 499.811 109.308C496.617 104.52 491.657 101.191 486.016 100.049L481.553 99.1335C478.737 98.5575 475.836 98.5417 473.015 99.087C470.194 99.6322 467.508 100.728 465.11 102.311C462.712 103.895 460.649 105.935 459.04 108.315C457.431 110.696 456.306 113.37 455.73 116.185Z" fill="#2F2E41"/>
<path d="M17.0903 480.089L16.6086 469.257C11.5867 466.573 5.9854 465.155 0.291138 465.126C8.12814 471.534 7.14874 483.885 12.462 492.501C14.1398 495.176 16.3979 497.439 19.0691 499.122C21.7402 500.805 24.756 501.866 27.8928 502.225L34.451 506.241C35.351 501.224 35.1526 496.072 33.8695 491.139C32.5865 486.206 30.2493 481.61 27.019 477.668C25.1849 475.474 23.0818 473.52 20.7594 471.851C19.1887 475.993 17.0903 480.089 17.0903 480.089Z" fill="#F2F2F2"/>
<path d="M1.19064 506.494H683.573C683.888 506.493 684.19 506.367 684.412 506.144C684.635 505.92 684.76 505.618 684.76 505.303C684.76 504.988 684.635 504.685 684.412 504.462C684.19 504.239 683.888 504.113 683.573 504.112H1.19064C0.875452 504.113 0.573504 504.239 0.350952 504.462C0.1284 504.685 0.00341797 504.988 0.00341797 505.303C0.00341797 505.618 0.1284 505.92 0.350952 506.144C0.573504 506.367 0.875452 506.493 1.19064 506.494Z" fill="#CACACA"/>
<path d="M371.381 68.0541C373.855 78.9238 375.031 91.2469 368.432 100.974C365.627 105.147 361.51 108.265 356.734 109.836C351.899 111.269 346.801 111.582 341.827 110.751C330.572 109.192 320.569 103.329 309.499 101.053C304.614 100.049 299.43 99.7166 294.727 101.65C291.204 103.098 287.493 106.01 287.476 110.165C287.459 114.43 291.164 117.262 294.848 118.573C299.765 120.323 304.874 119.646 309.974 119.425C315.467 119.188 321.067 119.684 325.63 123.048C329.554 126.111 332.564 130.191 334.332 134.845C336.625 140.411 337.556 146.396 339.022 152.203C340.333 157.424 342.187 162.494 344.555 167.329C349.199 176.805 355.711 185.245 363.698 192.143C367.638 195.534 372.424 198.987 377.804 199.298C381.953 199.538 386.998 197.794 388.597 193.591C389.191 191.776 389.133 189.811 388.433 188.035C387.732 186.258 386.433 184.783 384.761 183.862C381.204 182.067 377.331 184.627 376.183 188.141C375.882 188.951 375.776 189.82 375.876 190.679C375.975 191.537 376.276 192.36 376.754 193.08C377.832 194.688 375.234 196.191 374.163 194.594C371.676 190.886 372.976 185.899 376.022 182.928C377.508 181.413 379.494 180.491 381.61 180.333C383.726 180.176 385.827 180.793 387.521 182.071C389.281 183.411 390.611 185.236 391.349 187.321C392.087 189.407 392.2 191.662 391.674 193.811C390.395 198.427 385.858 201.364 381.328 202.091C375.734 202.99 370.35 200.791 365.835 197.615C361.304 194.344 357.185 190.539 353.566 186.282C346.208 177.821 340.677 167.931 337.319 157.233C334.017 146.652 333.777 132.673 323.965 125.527C318.917 121.85 312.73 122.258 306.811 122.596C301.585 122.894 296.487 122.84 291.693 120.474C287.735 118.52 284.541 114.915 284.475 110.321C284.409 105.684 287.701 101.956 291.58 99.8429C301.828 94.2617 314.134 98.7629 324.202 102.492C334.327 106.241 345.886 110.642 356.646 106.696C361.611 104.767 365.61 100.947 367.763 96.0735C370.369 90.5482 370.739 84.2789 370.137 78.2826C369.783 75.1079 369.232 71.9582 368.488 68.8516C368.06 66.9719 370.952 66.1693 371.381 68.0541Z" fill="#3F3D56"/>
<path d="M352.992 37.5618C355.959 47.4667 360.431 56.8565 366.252 65.4018C367.692 67.5018 369.206 69.5485 370.792 71.5418C372.026 69.3006 373.519 67.2128 375.242 65.3218C381.292 58.6718 389.402 54.3218 397.272 49.9618C405.142 45.6018 413.132 40.9218 418.692 33.8518C421.187 30.6693 422.974 26.9906 423.932 23.0618C425.192 17.7318 424.712 12.1718 421.602 7.72183C417.082 1.25183 408.072 -1.02818 400.412 0.841825C392.742 2.71182 386.322 8.04182 381.342 14.1618C382.972 6.64182 375.042 -0.618178 367.372 0.0418216C359.702 0.711822 353.552 7.41181 351.512 14.8318C349.462 22.2418 350.792 30.1818 352.992 37.5618Z" fill="#715AFF"/>
<g opacity="0.2">
<path d="M366.252 65.4018C367.692 67.5018 369.206 69.5484 370.792 71.5418C372.026 69.3005 373.519 67.2127 375.242 65.3218C381.292 58.6718 389.402 54.3218 397.272 49.9618C405.142 45.6018 413.132 40.9218 418.692 33.8518C421.187 30.6692 422.974 26.9905 423.932 23.0618C406.24 25.5144 389.984 34.1386 378.032 47.4118C373.247 52.8003 369.278 58.8615 366.252 65.4018Z" fill="black"/>
</g>
</g>
<defs>
<clipPath id="clip0_6_70">
<rect width="684.763" height="506.494" fill="white"/>
</clipPath>
</defs>
</svg>
