<svg width="142" height="115" viewBox="0 0 142 115" fill="none" xmlns="http://www.w3.org/2000/svg">
<path d="M48.5763 108.429C44.5354 86.7164 32.1835 73.2322 11.0693 68.0115C8.9953 67.4987 6.79241 67.5234 4.65876 67.2301C3.1335 67.0204 1.17204 67.5255 0.625366 64.4254C30.1091 61.5469 46.5748 45.1645 49.3809 15.4685C52.5445 16.1403 52.1421 18.2292 52.2728 19.9022C54.1365 43.7528 72.1483 61.6636 96.3303 63.6904C97.5907 63.7961 99.0513 63.4771 99.8415 65.0503C99.7096 67.1821 97.9959 67.1249 96.5931 67.1657C72.552 67.8661 52.6275 89.0587 52.2161 111.566C52.1922 112.873 52.1958 114.296 50.3506 114.926C47.7327 113.56 49.0574 110.921 48.5763 108.429Z" fill="#B8ADFF"/>
<path d="M97.4663 36.5661C94.7039 40.4183 94.6159 44.8761 92.8033 49.0256C89.6669 43.7922 89.4312 37.4504 84.8218 33.0938C80.1459 28.6743 74.4292 26.9445 68.2531 25.1504C73.6115 22.0029 80.1909 21.8254 84.5772 16.9809C88.803 12.3136 90.6213 6.68459 92.3282 0.137939C94.8179 14.4733 102.797 22.5368 117.196 24.8999C109.188 27.0339 101.926 29.1596 97.4663 36.5661Z" fill="#B8ADFF"/>
<path d="M125.989 71.302C124.075 72.8791 123.255 71.6452 123.087 70.2567C122.087 61.9703 116.726 58.338 109.199 56.8767C108.741 56.7878 108.34 56.4066 107.007 55.6425C111.509 53.1842 115.962 52.9792 119.084 49.8362C122.17 46.7296 122.015 42.2504 125.015 37.7344C126.904 42.5903 127.437 46.9189 130.588 50.0602C133.649 53.1116 138.071 53.063 141.841 55.8303C133.345 57.8965 127.225 61.9657 125.989 71.302Z" fill="#B8ADFF"/>
</svg>
