<svg width="589" height="631" viewBox="0 0 589 631" fill="none" xmlns="http://www.w3.org/2000/svg">
<g clip-path="url(#clip0_5_33)">
<path d="M302.782 124.673L279.287 145.907L266.888 132.189L290.384 110.954C290.549 106.251 292.822 101.274 297.008 97.4913C304.331 90.8721 314.709 90.4199 320.187 96.4811C325.665 102.542 324.169 112.822 316.845 119.441C312.659 123.224 307.478 124.983 302.782 124.673Z" fill="#E8989B"/>
<path d="M201.414 178.224L282.302 108.644L303.307 132.924L210.909 223.411" fill="black"/>
<path d="M179.493 218.849L167.762 265.205L248.762 264.205L239.493 221.849L179.493 218.849Z" fill="#E8989B"/>
<path d="M164.51 377.223L146.923 454.162L114.556 608.205L129.556 611.205L232.656 381.619L164.51 377.223Z" fill="#E8989B"/>
<path d="M198.368 394.749L230.852 466.678L278.556 611.205L298.556 606.205L255.321 357.07L198.368 394.749Z" fill="#E8989B"/>
<path d="M172.311 246.119C172.311 246.119 136.147 309.8 142.742 380.145C142.742 380.145 196.057 420.515 281.706 383.145L246.449 242.455L172.311 246.119Z" fill="#090814"/>
<path d="M112.051 626.571C110.329 625.16 109.4 623.584 109.289 621.887C109.162 619.946 110.121 617.863 112.139 615.697C112.188 615.074 112.814 607.351 114.21 605.968C114.093 605.554 113.382 602.813 114.548 601.034C115.097 600.195 115.982 599.707 117.178 599.581L117.231 599.576L117.256 599.622C117.29 599.682 120.687 605.657 125.797 606.181C128.726 606.482 131.659 604.956 134.515 601.644C134.617 601.4 135.424 597.366 135.945 594.696L135.965 594.589L163.807 609.407L180.082 613.966C182.127 614.54 183.556 616.441 183.556 618.59C183.556 620.422 182.502 622.119 180.871 622.913L172.982 626.752C169.686 628.357 166.011 629.205 162.353 629.205H119.563C116.79 629.205 114.123 628.27 112.051 626.571Z" fill="#090814"/>
<path d="M271.051 626.571C269.329 625.16 268.4 623.584 268.289 621.887C268.162 619.946 269.121 617.863 271.139 615.697C271.188 615.074 271.814 607.351 273.21 605.968C273.093 605.554 272.382 602.813 273.548 601.034C274.097 600.195 274.982 599.707 276.178 599.581L276.231 599.576L276.256 599.622C276.29 599.682 279.687 605.657 284.797 606.181C287.726 606.482 290.659 604.956 293.515 601.644C293.617 601.4 294.424 597.366 294.945 594.696L294.965 594.589L322.807 609.407L339.082 613.966C341.127 614.54 342.556 616.441 342.556 618.59C342.556 620.422 341.502 622.119 339.871 622.913L331.982 626.752C328.686 628.357 325.01 629.205 321.353 629.205H278.563C275.79 629.205 273.123 628.27 271.051 626.571Z" fill="#090814"/>
<path d="M191.132 74.9991C191.132 56.9553 205.759 42.3279 223.803 42.3279C241.847 42.3279 256.474 56.9553 256.474 74.9991C256.474 89.6328 246.853 102.018 233.591 106.177L227.275 147.918L195.078 121.086C195.078 121.086 202.033 112.226 205.764 102.236C196.947 96.3856 191.132 86.3734 191.132 74.9991Z" fill="#E8989B"/>
<path d="M192.012 107.251L230.493 131.849L248.255 163.217C253.397 172.299 255.134 182.917 253.153 193.165L244.993 235.383H159.907L173.351 147.302C175.067 136.06 179.349 125.364 185.865 116.044L192.012 107.251Z" fill="black"/>
<path d="M180.642 117.926C180.642 117.926 182.167 129.501 196.302 129.879C215.418 130.39 224.975 130.645 224.975 130.645C224.975 130.645 200.737 71.6581 210.703 78.3034C220.67 84.9488 247.247 57.0894 247.247 57.0894L255.089 71.7971C255.089 71.7971 273.825 65.0127 253.061 48.3993C253.061 48.3993 228.287 29.2461 201.987 40.7476C175.686 52.2492 180.642 117.926 180.642 117.926Z" fill="#090814"/>
<path d="M198.596 327.527L197.909 295.865L216.395 295.464L217.082 327.126C220.531 330.328 222.808 335.303 222.93 340.944C223.144 350.813 216.697 358.957 208.529 359.135C200.361 359.312 193.566 351.455 193.352 341.585C193.23 335.945 195.289 330.876 198.596 327.527Z" fill="#E8989B"/>
<path d="M224.117 169.057V322.526H192.012L182.523 170.353" fill="black"/>
<path d="M413.6 629.541C413.6 630.201 413.07 630.731 412.41 630.731H1.19C0.53 630.731 0 630.201 0 629.541C0 628.881 0.53 628.351 1.19 628.351H412.41C413.07 628.351 413.6 628.881 413.6 629.541Z" fill="#CCCCCC"/>
<path d="M514.626 240.788C568.307 189.844 578.794 113.742 538.05 70.8096C497.306 27.8773 420.76 34.3722 367.079 85.3165C313.399 136.261 302.912 212.363 343.656 255.295C384.4 298.227 460.946 291.732 514.626 240.788Z" fill="#D6D6E3"/>
<path d="M318.656 295.295C262.424 236.043 276.897 131.013 350.983 60.703C425.069 -9.60655 530.712 -18.5704 586.944 40.6817" stroke="#D6D6E3" stroke-width="3" stroke-miterlimit="10"/>
<rect x="376" y="105" width="121" height="121" rx="21.5111" fill="#715AFF"/>
<path d="M429.593 135.627C428.952 133.916 428.33 132.304 427.573 130.344C427.573 148.283 427.573 165.86 427.573 183.554C445.215 183.554 462.907 183.554 480.598 183.554C480.688 183.681 480.777 183.808 480.867 183.935C480.594 184.084 480.299 184.202 480.053 184.386C473.657 189.172 467.272 193.972 460.864 198.74C460.454 199.044 459.868 199.268 459.364 199.269C437.923 199.294 416.481 199.289 395.04 199.287C394.955 199.287 394.87 199.267 394.648 199.24C392.943 194.135 391.22 188.975 389.444 183.658C400.936 183.658 412.324 183.658 423.834 183.658C423.834 164.54 423.834 145.561 423.834 126.511C425.085 126.511 426.213 126.511 427.42 126.511C427.441 126.941 427.472 127.315 427.475 127.689C427.492 130.16 427.518 130.098 429.805 131.146C440.805 136.183 450.87 142.587 459.064 151.621C463.511 156.523 467.168 161.948 469.155 168.346C470.241 171.84 470.927 175.378 469.78 179.018C469.539 179.784 469.212 180.226 468.273 180.224C455.006 180.194 441.739 180.204 428.471 180.204C428.313 180.204 428.154 180.204 427.993 180.204C429.279 178.93 430.699 177.835 431.723 176.448C434.417 172.803 435.11 168.507 435.213 164.102C435.382 156.874 433.97 149.877 431.948 142.986C431.232 140.548 430.394 138.146 429.593 135.627Z" fill="#FDFDFD"/>
<path d="M420.207 169.799C420.207 173.3 420.207 176.671 420.207 180.125C410.691 180.125 401.274 180.125 392.13 180.125C394.442 178.212 397.04 176.306 399.348 174.098C403.843 169.799 407.041 164.526 409.329 158.82C412.557 150.768 415.377 142.551 418.389 134.411C418.868 133.115 419.435 131.851 420.207 130.624C420.207 143.64 420.207 156.655 420.207 169.799Z" fill="#F9F9F9"/>
<circle cx="492.5" cy="109.5" r="19.5" fill="#F87171"/>
<path d="M487.346 101.051V117.735H483.819V104.399H483.721L479.9 106.794V103.666L484.031 101.051H487.346ZM497.854 118.102C496.452 118.096 495.247 117.752 494.237 117.067C493.232 116.383 492.458 115.392 491.915 114.094C491.377 112.796 491.111 111.234 491.116 109.409C491.116 107.59 491.385 106.039 491.923 104.758C492.466 103.476 493.24 102.501 494.245 101.833C495.255 101.159 496.458 100.823 497.854 100.823C499.249 100.823 500.45 101.159 501.455 101.833C502.465 102.506 503.241 103.484 503.784 104.766C504.328 106.042 504.596 107.59 504.591 109.409C504.591 111.24 504.319 112.804 503.776 114.102C503.239 115.4 502.467 116.391 501.463 117.075C500.458 117.76 499.255 118.102 497.854 118.102ZM497.854 115.177C498.81 115.177 499.573 114.697 500.143 113.735C500.713 112.774 500.996 111.332 500.99 109.409C500.99 108.144 500.86 107.09 500.599 106.248C500.344 105.407 499.98 104.774 499.507 104.35C499.04 103.927 498.489 103.715 497.854 103.715C496.903 103.715 496.143 104.19 495.573 105.14C495.002 106.091 494.714 107.514 494.709 109.409C494.709 110.691 494.837 111.761 495.092 112.619C495.353 113.472 495.719 114.113 496.192 114.542C496.664 114.965 497.218 115.177 497.854 115.177Z" fill="white"/>
</g>
<defs>
<clipPath id="clip0_5_33">
<rect width="588.032" height="630.731" fill="white"/>
</clipPath>
</defs>
</svg>
