<svg width="328" height="370" viewBox="0 0 328 370" fill="none" xmlns="http://www.w3.org/2000/svg">
<path d="M59.8669 62.1983L76.8069 67.7683V43.3783H61.437L59.8669 62.1983Z" fill="#EFA4A7"/>
<path d="M74.7069 50.1283C84.0295 50.1283 91.5869 42.5709 91.5869 33.2483C91.5869 23.9257 84.0295 16.3683 74.7069 16.3683C65.3843 16.3683 57.8269 23.9257 57.8269 33.2483C57.8269 42.5709 65.3843 50.1283 74.7069 50.1283Z" fill="#EFA4A7"/>
<path d="M70.0769 31.5783C72.9069 31.4883 74.7569 28.6383 75.8569 26.0283C76.9569 23.4183 78.0869 20.4283 80.7069 19.3483C82.8469 18.4683 86.6269 24.4183 88.3269 22.8283C90.0869 21.1783 88.3669 12.6983 86.4969 11.1683C84.6269 9.63831 82.067 9.34829 79.6569 9.23831C73.7769 8.96831 67.857 9.43831 62.0869 10.6483C58.5169 11.3883 54.8469 12.5083 52.2769 15.0883C49.0169 18.3583 48.1869 23.2983 47.9469 27.9083C47.707 32.6283 47.9769 37.5683 50.2769 41.6983C52.5769 45.8283 57.3769 48.8783 61.9769 47.8183C62.4369 45.3183 61.9769 42.7483 61.7869 40.2083C61.607 37.6683 61.7869 34.9283 63.3469 32.8983C64.9069 30.8683 68.2069 30.0783 70.0169 31.8683" fill="black"/>
<path d="M49.307 37.4283C47.617 36.1883 45.597 35.1583 43.517 35.4083C41.267 35.6783 39.377 37.5283 38.797 39.7183C38.217 41.9083 38.867 44.3183 40.257 46.1083C41.647 47.8983 43.707 49.0783 45.897 49.6683C47.157 50.0083 48.547 50.1483 49.747 49.6383C51.527 48.8783 52.477 46.6083 51.787 44.7983" fill="black"/>
<path d="M81.3268 333.558H65.4568V356.068H81.3268V333.558Z" fill="#EFA4A7"/>
<path d="M96.7869 369.698C98.4569 369.698 99.9369 369.658 101.057 369.558C105.277 369.168 109.297 366.058 111.317 364.238C112.227 363.418 112.517 362.118 112.047 360.998C111.707 360.188 111.027 359.588 110.187 359.348L99.0469 356.168L81.0069 343.998L80.8069 344.358C80.7269 344.488 78.9569 347.678 78.3669 349.838C78.1369 350.658 78.1969 351.338 78.5469 351.868C78.7868 352.238 79.1169 352.448 79.3869 352.568C79.0569 352.908 78.0368 353.598 74.8869 354.108C70.2868 354.838 69.3168 350.068 69.2769 349.868L69.2469 349.708L69.1069 349.618C66.9169 348.208 65.5668 347.568 65.1069 347.708C64.8168 347.798 64.3269 347.938 63.0269 360.928C62.8969 361.338 61.9769 364.328 62.6069 367.178C63.2868 370.288 76.8669 369.218 79.5769 368.968C79.6568 368.968 89.8269 369.698 96.7869 369.698Z" fill="#36344E"/>
<path d="M20.2761 315.864L8.36426 334.964L21.8301 343.362L33.7419 324.262L20.2761 315.864Z" fill="#EFA4A7"/>
<path d="M38.1569 366.608C40.0169 366.608 41.7269 366.388 42.9469 366.168C44.1469 365.958 45.0869 365.008 45.2769 363.798C45.4169 362.938 45.1569 362.068 44.5769 361.418L36.8069 352.828L27.9469 332.958L27.5869 333.158C27.4469 333.228 24.2569 334.998 22.6169 336.518C21.9869 337.098 21.6769 337.708 21.6869 338.338C21.6869 338.778 21.8569 339.128 22.0269 339.378C21.5669 339.498 20.3369 339.538 17.3969 338.298C13.1069 336.488 14.8069 331.928 14.8869 331.738L14.9469 331.588L14.8769 331.438C13.7669 329.078 12.9669 327.828 12.4969 327.698C12.2069 327.618 11.7169 327.488 3.73688 337.808C3.40689 338.078 1.04688 340.138 0.0668706 342.888C-1.00314 345.888 11.0869 352.158 13.5169 353.388C13.5869 353.448 26.2469 362.648 31.4369 365.258C33.4969 366.298 35.9369 366.618 38.1569 366.618L38.1569 366.608Z" fill="#36344E"/>
<path d="M53.7769 145.288H98.2069L102.237 186.618L84.5969 339.328H61.9169L70.9869 251.128L34.1969 330.758L14.0369 316.648L42.7669 242.308C42.7669 242.308 32.5069 177.548 40.5669 161.418C48.6269 145.288 53.7769 145.288 53.7769 145.288Z" fill="black"/>
<path d="M31.6768 147.808H102.237L81.0668 56.5782H50.3268L31.6768 147.808Z" fill="black"/>
<path d="M119.757 54.7883C120.887 49.2383 118.817 44.1683 115.157 43.4683C111.487 42.7683 107.607 46.6983 106.477 52.2483C105.997 54.4583 106.067 56.7483 106.697 58.9383L102.237 82.5083L113.767 84.3283L116.937 60.8983C118.367 59.1083 119.337 57.0183 119.757 54.7883Z" fill="#EFA4A7"/>
<path d="M51.0768 56.5783H78.1868L96.4668 93.1283L103.357 65.7383L118.507 67.3483C118.507 67.3483 114.927 120.868 99.2568 119.058C83.5868 117.248 47.0568 69.0283 51.0768 56.5783Z" fill="black"/>
<path d="M20.7968 195.598C19.6668 201.148 21.7368 206.218 25.3968 206.918C29.0668 207.618 32.9468 203.688 34.0768 198.138C34.5568 195.928 34.4868 193.638 33.8568 191.448L38.3168 167.878L26.7868 166.058L23.6168 189.488C22.1868 191.278 21.2168 193.368 20.7968 195.598Z" fill="#EFA4A7"/>
<path d="M66.5268 56.5783C66.5268 56.5783 51.1168 55.9283 50.3168 56.5783C46.1168 60.0183 21.4468 183.918 21.4468 183.918H37.0668L66.5168 56.5783H66.5268Z" fill="black"/>
<path d="M327.383 0H120.383V59H327.383V0Z" fill="#3F3F46"/>
<path d="M327.383 63H120.383V122H327.383V63Z" fill="#D5D5D5"/>
<path d="M327.383 126H120.383V185H327.383V126Z" fill="#D5D5D5"/>
<circle cx="314.883" cy="138.5" r="7.5" fill="black"/>
<path d="M138.591 12H169.948" stroke="white" stroke-width="2" stroke-miterlimit="10"/>
<path d="M138.591 29H307.591" stroke="white" stroke-width="2" stroke-miterlimit="10"/>
<path d="M138.591 42.8549H212.221" stroke="white" stroke-width="2" stroke-miterlimit="10"/>
<path d="M138.591 135H248.091" stroke="black" stroke-width="2" stroke-miterlimit="10"/>
<path d="M138.591 152H231.091" stroke="black" stroke-width="2" stroke-miterlimit="10"/>
<path d="M138.591 165.855H212.221" stroke="black" stroke-width="2" stroke-miterlimit="10"/>
<path d="M138.591 74.7032H239.372" stroke="black" stroke-width="2" stroke-miterlimit="10"/>
<path d="M138.591 89.1273H307.591" stroke="black" stroke-width="2" stroke-miterlimit="10"/>
<path d="M138.591 105.249H212.221" stroke="black" stroke-width="2" stroke-miterlimit="10"/>
<circle cx="314.883" cy="12.5" r="7.5" fill="#D9D9D9"/>
<circle cx="314.883" cy="75.5" r="7.5" fill="black"/>
<path d="M315.636 8.72727V16H314.099V10.1868H314.056L312.391 11.2308V9.86719L314.191 8.72727H315.636Z" fill="black"/>
<path d="M312.472 79V77.892L315.061 75.495C315.281 75.282 315.466 75.0902 315.615 74.9197C315.767 74.7493 315.881 74.5824 315.96 74.419C316.038 74.2533 316.077 74.0746 316.077 73.8828C316.077 73.6697 316.028 73.4863 315.931 73.3324C315.834 73.1761 315.701 73.0566 315.533 72.9737C315.365 72.8885 315.175 72.8459 314.962 72.8459C314.739 72.8459 314.545 72.8909 314.379 72.9808C314.214 73.0708 314.086 73.1998 313.996 73.3679C313.906 73.536 313.861 73.736 313.861 73.968H312.401C312.401 73.4922 312.509 73.0791 312.724 72.7287C312.94 72.3783 313.242 72.1072 313.63 71.9155C314.018 71.7237 314.466 71.6278 314.972 71.6278C315.493 71.6278 315.946 71.7202 316.332 71.9048C316.721 72.0871 317.022 72.3404 317.238 72.6648C317.453 72.9891 317.561 73.3608 317.561 73.7798C317.561 74.0545 317.507 74.3255 317.398 74.593C317.291 74.8606 317.101 75.1577 316.826 75.4844C316.551 75.8087 316.164 76.1982 315.665 76.6527L314.603 77.6932V77.7429H317.657V79H312.472Z" fill="white"/>
<path d="M315.161 142.099C314.63 142.099 314.158 142.008 313.744 141.826C313.332 141.641 313.006 141.388 312.767 141.066C312.53 140.742 312.408 140.368 312.401 139.944H313.95C313.959 140.121 314.017 140.278 314.124 140.413C314.232 140.545 314.377 140.648 314.557 140.722C314.737 140.795 314.939 140.832 315.164 140.832C315.398 140.832 315.606 140.79 315.786 140.707C315.965 140.625 316.106 140.51 316.208 140.363C316.31 140.216 316.361 140.047 316.361 139.855C316.361 139.661 316.306 139.489 316.197 139.34C316.091 139.189 315.937 139.07 315.736 138.985C315.537 138.9 315.3 138.857 315.026 138.857H314.347V137.728H315.026C315.258 137.728 315.462 137.688 315.64 137.607C315.82 137.527 315.96 137.415 316.059 137.273C316.158 137.129 316.208 136.961 316.208 136.769C316.208 136.587 316.164 136.427 316.077 136.29C315.991 136.15 315.871 136.041 315.714 135.963C315.561 135.885 315.381 135.846 315.175 135.846C314.966 135.846 314.776 135.884 314.603 135.96C314.43 136.033 314.292 136.138 314.188 136.276C314.083 136.413 314.028 136.574 314.021 136.759H312.547C312.554 136.339 312.674 135.97 312.906 135.651C313.138 135.331 313.45 135.081 313.843 134.901C314.238 134.719 314.685 134.628 315.182 134.628C315.684 134.628 316.123 134.719 316.499 134.901C316.876 135.084 317.168 135.33 317.376 135.64C317.587 135.948 317.691 136.293 317.689 136.677C317.691 137.084 317.565 137.424 317.309 137.696C317.056 137.968 316.725 138.141 316.318 138.214V138.271C316.853 138.34 317.26 138.526 317.54 138.829C317.821 139.129 317.961 139.506 317.959 139.958C317.961 140.372 317.842 140.741 317.6 141.062C317.361 141.384 317.031 141.638 316.609 141.822C316.188 142.007 315.705 142.099 315.161 142.099Z" fill="white"/>
</svg>
